<svg height="64" preserveAspectRatio="none" viewBox="0 0 64 64" width="64" xmlns="http://www.w3.org/2000/svg"><g fill="#717071"><path d="m11.5 2h1v60h-1z"/><path d="m21.5 2h1v60h-1z"/><path d="m31.5 2h1v60h-1z"/><path d="m41.5 2h1v60h-1z"/><path d="m51.5 2h1v60h-1z"/></g><path d="m2 51.5h60v1h-60z" fill="#9c9c9d"/><path d="m2 41.5h60v1h-60z" fill="#9c9c9d"/><path d="m2 31.5h60v1h-60z" fill="#9c9c9d"/><path d="m2 21.5h60v1h-60z" fill="#9c9c9d"/><path d="m2 11.5h60v1h-60z" fill="#9c9c9d"/><path d="m2.6733398 52.7392578-1.3466796-1.4785156 9.8530273-8.9736328 10.7519531-22.8466797 10.3339844 18.8222656 8.9140625-8.118164 10.7519531-22.847168 10.9453125 19.9355469-1.7539062.9628906-9.0546875-16.4931641-9.2480469 19.6528321-11.0859375 10.0966796-9.6660156-17.6064453-9.2480469 19.6523438z" fill="#e75513"/><path d="m61.5833359 2.4166641v59.1666718h-59.1666734v-59.1666718zm2-2h-2-59.1666734-2v2 59.1666718 2h2 59.1666718 2v-2-59.1666718-2z" fill="#868686"/><path d="m62.0830078 62.0830078h-60.1665039v-60.1665039h60.1665039zm-59.1665039-1h58.1665039v-58.1665039h-58.1665039z" fill="#3e3a39"/></svg>